<?xml version="1.0" encoding="utf-8"?>
<svg version="1.1" xmlns:xlink="http://www.w3.org/1999/xlink" width="81px" height="81px" xmlns="http://www.w3.org/2000/svg">
  <defs>
    <linearGradient gradientUnits="userSpaceOnUse" x1="0" y1="40.5" x2="81" y2="40.5" id="LinearGradient26">
      <stop id="Stop27" stop-color="#2e1c1c" offset="0" />
      <stop id="Stop28" stop-color="#b43836" offset="1" />
    </linearGradient>
  </defs>
  <g transform="matrix(1 0 0 1 -3243 -6705 )">
    <path d="M 57.08012217376192 5.20974481896117  C 57.08012217376192 4.413165966269549  56.60946196600773 3.6918310251545225  55.880357142857136 3.3709821114676317  C 51.00448603735672 1.3513147062001893  45.77760679694751 0.3149507188776709  40.5 0.32142854003906274  C 18.309375 0.32142854003906274  0.32142854003906274 18.309375  0.32142854003906274 40.5  C 0.32142854003906274 62.690625000000004  18.309375 80.67857145996093  40.5 80.67857145996093  C 62.690625000000004 80.67857145996093  80.67857145996093 62.69062499999999  80.67857145996093 40.49999999999999  C 80.67857145996093 35.15624996861048  79.63392863420758 29.953124999999993  77.62901788853237 25.11964285714285  C 77.30816897484549 24.390538033992254  76.58683403373043 23.919877826238068  75.79025518103883 23.919877826238068  C 74.68075458487539 23.919877826238068  73.78132664099977 24.819305770113715  73.78132664099977 25.928806366277126  C 73.78132664099977 26.178443505714682  73.82785448845935 26.425893986454593  73.91852678571429 26.658482111467627  C 75.73559223797994 31.04659502103733  76.66750909018073 35.75055628567071  76.66071428571428 40.5  C 76.66071428571428 60.470758959960946  60.470758959960946 76.66071428571428  40.5 76.66071428571428  C 20.529241040039064 76.66071428571428  4.339285714285714 60.470758959960946  4.339285714285714 40.5  C 4.339285714285714 20.529241040039064  20.529241040039064 4.339285714285714  40.5 4.339285714285714  C 45.31339288853236 4.339285714285714  49.99218749999999 5.279464285714287  54.341517888532366 7.0814732142857135  C 54.57410601354539 7.172145511540628  54.82155649428531 7.2186733590002286  55.07119363372284 7.2186733590002286  C 56.180694229886264 7.2186733590002286  57.08012217376192 6.319245415124583  57.08012217376192 5.20974481896117  Z M 61.0171874686105 38.74419645996093  L 25.304464317103793 38.49709824567522  L 41.73348217424665 22.066071397181915  C 42.10350715964005 21.6931681213191  42.31114476584327 21.189127171329645  42.31114476584327 20.66379361732361  C 42.31114476584327 20.12961971880232  42.09648033273303 19.617854074042633  41.71540181710379 19.243526785714288  C 41.34107452535081 18.86244824120162  40.8293088605399 18.647783789655435  40.295134939013394 18.647783789655435  C 39.76980136173679 18.647783789655435  39.265760391362484 18.85542141420362  38.892857111467634 19.22544642857142  L 19.281696397181914 38.83660714285713  C 18.907257585279467 39.20975310283677  18.699354136024038 39.71828354628238  18.70513395996094 40.24687499999999  C 18.7091518484933 40.757142888532364  18.906026785714285 41.26741068289619  19.299776754324775 41.659151754324775  L 39.18616071428572 61.547544611467636  C 39.560561321266945 61.9292445003934  40.072758171317666 62.1443056393838  40.607426872209956 62.1443056393838  C 41.132272961957874 62.1443056393838  41.63588683841816 61.93705214227576  42.00870532575335 61.56763395996094  C 42.37812356547219 61.19481546457191  42.58537709890918 60.69120154769507  42.58537709890918 60.1663554118218  C 42.58537709890918 59.631686711141114  42.370315960088526 59.11948986127481  41.988616071428574 58.74508925432478  L 25.73236610281808 42.488839285714285  L 61.0453125 42.73392860281808  C 61.0561157326847 42.73410832022002  61.06692027325912 42.734198183582905  61.077725000686705 42.734198183582905  C 62.153940578445145 42.734198183582905  63.02638568358291 41.86175307844514  63.02638568358291 40.7855375006867  C 63.02638568358291 40.77473277325926  63.02629582022001 40.76392823268455  63.02611610281806 40.753125  C 63.0184520883764 39.646814456223474  62.12349801274627 38.75186042254428  61.0171874686105 38.74419645996093  Z " fill-rule="nonzero" fill="url(#LinearGradient26)" stroke="none" transform="matrix(1 0 0 1 3243 6705 )" />
  </g>
</svg>