<?xml version="1.0" standalone="no"?><!DOCTYPE svg PUBLIC "-//W3C//DTD SVG 1.1//EN" "http://www.w3.org/Graphics/SVG/1.1/DTD/svg11.dtd"><svg t="1702799742075" class="icon" viewBox="0 0 1024 1024" version="1.1" xmlns="http://www.w3.org/2000/svg" p-id="2468" xmlns:xlink="http://www.w3.org/1999/xlink" width="200" height="200"><path d="M512 64.503937a447.637165 447.637165 0 0 1 174.170709 859.857638A447.637165 447.637165 0 0 1 337.83937 99.638425 444.663937 444.663937 0 0 1 512 64.503937m0-64.503937C229.230866 0 0 229.230866 0 512s229.230866 512 512 512 512-229.230866 512-512S794.769134 0 512 0z" fill="#333333" p-id="2469"></path><path d="M480.433386 381.984252h64.503937v417.431181h-64.503937z" fill="#333333" p-id="2470"></path><path d="M305.829291 374.929134h412.694174v64.503937H305.829291z" fill="#333333" p-id="2471"></path><path d="M339.498331 273.686173l45.611338-45.611338 165.155276 165.155275-45.611339 45.611339z" fill="#333333" p-id="2472"></path><path d="M478.746205 393.237165l166.843464-166.843464 45.612347 45.61033-166.844473 166.843465zM343.705197 552.314961h336.932283v64.503937h-336.932283z" fill="#333333" p-id="2473"></path></svg>