<?xml version="1.0" standalone="no"?><!DOCTYPE svg PUBLIC "-//W3C//DTD SVG 1.1//EN" "http://www.w3.org/Graphics/SVG/1.1/DTD/svg11.dtd"><svg t="1702720015552" class="icon" viewBox="0 0 1024 1024" version="1.1" xmlns="http://www.w3.org/2000/svg" p-id="6269" xmlns:xlink="http://www.w3.org/1999/xlink" width="200" height="200"><path d="M510.8 65.1c-245.4 0-445 199.6-445 445s199.6 445 445 445 445-199.6 445-445-199.6-445-445-445z m0 852.9c-224.9 0-407.9-183-407.9-407.9s183-407.9 407.9-407.9 407.9 183 407.9 407.9S735.7 918 510.8 918z" p-id="6270"></path><path d="M612.8 301.9c-41.8-16.4-73.7-34-93.2-45.9l-8.9-5.5-8.9 5.5c-15.8 9.7-48.9 28.5-93.1 45.9-40.7 15.9-79.9 22.4-105.6 25.1l-14.9 1.5v216.8c0 107 156.2 224.4 222.5 224.4 66.3 0 222.5-117.4 222.5-224.4V328.5l-14.9-1.5c-25.6-2.7-64.8-9.2-105.5-25.1z m83.4 243.4c0 87.8-140.3 187.3-185.4 187.3-45.1 0-185.4-99.6-185.4-187.3V361.6c26.7-3.9 61.2-11.2 96.9-25.2 38.8-15.2 69.5-31.5 88.5-42.6 20.9 12.2 51 27.8 88.6 42.6 35.6 13.9 70.1 21.3 96.9 25.2v183.7z" p-id="6271"></path><path d="M412.3 490.3c-7.2-7.2-19-7.2-26.2 0-7.2 7.2-7.2 19 0 26.2l80.4 80.4c3.5 3.5 8.2 5.4 13.1 5.4s9.6-2 13.1-5.4l147.4-147.5c7.2-7.2 7.2-19 0-26.2-7.2-7.2-19-7.2-26.2 0L479.7 557.6l-67.4-67.3z" p-id="6272"></path></svg>