<?xml version="1.0" encoding="utf-8"?>
<svg version="1.1" xmlns:xlink="http://www.w3.org/1999/xlink" width="49px" height="62px" xmlns="http://www.w3.org/2000/svg">
  <g transform="matrix(1 0 0 1 -1702 -7679 )">
    <path d="M 46.81266157670455 10.472792968749985  C 47.697323863636356 9.37096093749998  48.14483167613635 8.155300781249986  48.14483167613635 6.831019531249999  C 47.697323863636356 3.0803828124999963  45.58987144886363 0.9853398437500012  41.817358664772726 0.5404414062500037  C 39.59541051136364 0.7628906250000024  37.930350142045455 1.6476015624999993  36.82193394886364 3.1891250000000015  L 24.5 20.736457031249998  L 12.178066051136364 3.189003906249997  C 11.064534090909095 1.6474804687499942  9.39935191761364 0.7627695312499974  7.182763139204541 0.5403203124999987  C 3.405012784090913 0.985218749999996  1.2975603693181768 3.0803828124999963  0.8552901278409134 6.8308984374999975  C 0.8552901278409134 8.15530078125  1.2975603693181768 9.370960937499996  2.187460227272735 10.47279296874999  L 12.844212002840914 25.371441406249996  L 5.850593039772727 25.371441406249996  C 3.405012784090913 25.593890624999997  2.072842684659091 26.809671875  1.8543263494318183 29.01345703125  C 2.072842684659091 31.22244921875  3.405012784090913 32.43810937499999  5.850593039772727 32  L 18.17264879261364 32  L 18.17264879261364 38  L 5.850593039772727 38  C 3.405012784090913 38.50623828125  2.072842684659091 39.721898437499995  1.8543263494318183 41.925683593749994  C 2.072842684659091 44.13443359375  3.405012784090913 45.35033593749999  5.850593039772727 45  L 19 45  L 19 55.831121093750006  C 18.39116512784091 59.58696484374999  20.50373330965909 61.459558593749996  24.5 61.459558593749996  C 28.4962666903409 61.459558593749996  30.603719105113637 59.58684375  30 55.831121093750006  L 30 45  L 43.14940696022728 45  C 45.58987144886363 45.35033593749999  46.92204154829546 44.13443359374998  47.14567365056818 41.92568359374998  C 46.92204154829546 39.721898437499995  45.589993252840905 38.50623828124998  43.14940696022728 38  L 30.827594815340902 38  L 30.827594815340902 32  L 43.14940696022728 32  C 45.58987144886363 32.43810937499998  46.92204154829546 31.222449218749986  47.14567365056818 29.01345703124998  C 46.92204154829546 26.809671874999985  45.589993252840905 25.59389062499999  43.14940696022728 25.37144140624998  L 36.15578799715908 25.37144140624998  L 46.81266157670455 10.472792968749985  Z " fill-rule="nonzero" fill="#c5a059" stroke="none" transform="matrix(1 0 0 1 1702 7679 )" />
  </g>
</svg>