<svg t="1698394321211" class="icon" viewBox="0 0 1024 1024" version="1.1" xmlns="http://www.w3.org/2000/svg" p-id="20720" width="200" height="200"><path d="M772.961009 0H251.038991a119.542377 119.542377 0 0 0-119.542376 119.542377v784.915246a119.542377 119.542377 0 0 0 119.542376 119.542377h521.922018a119.542377 119.542377 0 0 0 119.542376-119.542377V119.542377a119.542377 119.542377 0 0 0-119.542376-119.542377zM588.148494 952.274574h-152.296988a35.862713 35.862713 0 0 1 0-71.725426h152.296988a35.862713 35.862713 0 0 1 0 71.725426z m153.970581-143.450852H281.880925a47.816951 47.816951 0 0 1-47.816951-47.816951V146.558954a47.816951 47.816951 0 0 1 47.816951-47.816951h460.23815a47.816951 47.816951 0 0 1 47.816951 47.816951v614.447817a47.816951 47.816951 0 0 1-47.816951 47.816951z" fill="#1afa29" p-id="20721"></path><path d="M565.674527 440.872286h124.084987a35.862713 35.862713 0 0 0 0-71.725426h-84.636002l70.290917-127.671259a35.862713 35.862713 0 0 0-62.87929-34.667289l-89.178613 162.338548h-21.039459l-89.417697-162.338548a35.862713 35.862713 0 1 0-62.640206 34.667289l70.290918 127.671259H335.674994a35.862713 35.862713 0 1 0 0 71.725426h141.29909v68.617324H335.674994a35.862713 35.862713 0 1 0 0 71.725426h141.29909v103.523699a35.862713 35.862713 0 0 0 71.725426 0v-103.523699h141.060004a35.862713 35.862713 0 0 0 0-71.725426h-141.060004v-68.617324z" fill="#1afa29" p-id="20722"></path></svg>