<svg t="1698394086982" class="icon" viewBox="0 0 1024 1024" version="1.1" xmlns="http://www.w3.org/2000/svg" p-id="15046" width="200" height="200"><path d="M298.666667 341.333333m170.666666 0l277.333334 0q170.666667 0 170.666666 170.666667l0 192q0 170.666667-170.666666 170.666667l-277.333334 0q-170.666667 0-170.666666-170.666667l0-192q0-170.666667 170.666666-170.666667Z" fill="#1890FF" opacity=".1" p-id="15047"></path><path d="M746.666667 128a170.666667 170.666667 0 0 1 170.666666 170.666667v426.666666a170.666667 170.666667 0 0 1-170.666666 170.666667H277.333333a170.666667 170.666667 0 0 1-170.666666-170.666667V298.666667a170.666667 170.666667 0 0 1 170.666666-170.666667h469.333334z m106.666666 298.666667H170.666667v298.666666a106.666667 106.666667 0 0 0 106.666666 106.666667h469.333334a106.666667 106.666667 0 0 0 106.666666-106.666667V426.666667z m-138.666666 234.666666a32 32 0 0 1 0 64h-106.666667a32 32 0 0 1 0-64h106.666667zM746.666667 192H277.333333a106.666667 106.666667 0 0 0-106.666666 106.666667v64h682.666666V298.666667a106.666667 106.666667 0 0 0-106.666666-106.666667z" fill="#1890FF" p-id="15048"></path></svg>